<?xml version="1.0"?>
<svg xmlns="http://www.w3.org/2000/svg" width="512" height="512" viewBox="0 0 128 128"><g><path d="M29.52,32.887h2.666a23.841,23.841,0,0,0,47.554,0h2.667a1.75,1.75,0,0,0,0-3.5H79.734a23.866,23.866,0,0,0-8.65-16.671V9.039a1.75,1.75,0,0,0-3.5,0v1.289A23.584,23.584,0,0,0,61.92,8.06V6.307a1.75,1.75,0,0,0-1.75-1.75H51.757a1.75,1.75,0,0,0-1.75,1.75V8.06a23.584,23.584,0,0,0-5.664,2.268V9.039a1.75,1.75,0,0,0-3.5,0v3.677a23.863,23.863,0,0,0-8.65,16.671H29.52a1.75,1.75,0,1,0,0,3.5Zm26.443,18.6A20.366,20.366,0,0,1,35.7,32.887H76.223A20.366,20.366,0,0,1,55.963,51.485ZM40.843,17.55v7.522a1.75,1.75,0,1,0,3.5,0V14.443a20.168,20.168,0,0,1,5.664-2.757V25.072a1.75,1.75,0,0,0,3.5,0V8.057H58.42V25.072a1.75,1.75,0,1,0,3.5,0V11.686a20.168,20.168,0,0,1,5.664,2.757V25.072a1.75,1.75,0,1,0,3.5,0V17.55a20.332,20.332,0,0,1,5.15,11.837H35.693A20.332,20.332,0,0,1,40.843,17.55Z"/><path d="M112.157,101.411,108.805,98.6l-.9-7.494a1.745,1.745,0,0,0-.4-.915l-1.444-1.723.989-2.172a1.751,1.751,0,0,0-.262-1.863l-1.522-1.781,1.066-2.081a1.749,1.749,0,0,0-.195-1.9l-1.475-1.831,1-2.128a1.806,1.806,0,0,0,.152-.959,1.749,1.749,0,0,0-.46-1l-1.53-1.635,1.111-2.174a1.9,1.9,0,0,0,.173-1.059,1.758,1.758,0,0,0-.468-.991l-1.567-1.648,1.142-2.151a1.8,1.8,0,0,0,.186-1.079,1.75,1.75,0,0,0-.486-.987L102.4,59.492l1.128-2.143a2.025,2.025,0,0,0,.18-1.1,1.75,1.75,0,0,0-.494-1.024l-1.553-1.569,1.15-2.07a2.064,2.064,0,0,0,.2-1.157,1.746,1.746,0,0,0-.355-.862L101.1,47.57l1-1.809a1.749,1.749,0,0,0,.207-1.056l-.015-.127a1.752,1.752,0,0,0-.464-.994L100.3,41.951l1.118-2.084a1.948,1.948,0,0,0,.186-1.108,1.749,1.749,0,0,0-1.736-1.531H90.477a1.749,1.749,0,0,0-1.75,1.75V59.989a13.793,13.793,0,0,0-5.77-1.276H28.97A13.767,13.767,0,0,0,15.218,72.465v49.228a1.749,1.749,0,0,0,1.75,1.75h94.064a1.749,1.749,0,0,0,1.75-1.75V102.751A1.751,1.751,0,0,0,112.157,101.411ZM96.979,40.728l-.364.679a1.751,1.751,0,0,0,.268,2.028l1.582,1.677-.982,1.769a1.752,1.752,0,0,0,.148,1.922l1.583,2.04L97.96,53.1a1.751,1.751,0,0,0,.287,2.081l1.608,1.625L98.7,58.992a1.75,1.75,0,0,0,.3,2.043l1.522,1.546L99.39,64.722a1.749,1.749,0,0,0,.277,2.026l1.6,1.684-1.12,2.192a1.749,1.749,0,0,0,.28,1.992l1.567,1.674-.964,2.054a1.755,1.755,0,0,0,.221,1.841l1.449,1.8L101.617,82.1a1.751,1.751,0,0,0,.227,1.936l1.56,1.824-.985,2.162a1.75,1.75,0,0,0,.251,1.85l1.82,2.17.393,3.268-1.089-.914a1.746,1.746,0,0,0-1.125-.41H92.227V40.728ZM88.727,63.991V93.982H86.506a1.751,1.751,0,0,0-1.75,1.75v24.211H81.984V62.213h.973A10.134,10.134,0,0,1,88.727,63.991ZM78.484,82.532H73.125V62.213h5.359Zm-8.859,0H42.3V62.213H69.625Zm-30.824,0H33.443V62.213H38.8Zm-5.358,3.5H78.484v33.911H33.443ZM18.718,72.465A10.264,10.264,0,0,1,28.97,62.213h.973v57.73H18.718Zm90.564,47.478H88.256V97.482h13.776l7.25,6.085Z"/><path d="M90.667,112.054a1.75,1.75,0,0,0,1.75,1.75h12.7a1.75,1.75,0,1,0,0-3.5h-12.7A1.751,1.751,0,0,0,90.667,112.054Z"/></g></svg>
