<?xml version="1.0" encoding="iso-8859-1"?>
<!-- Generator: Adobe Illustrator 19.0.0, SVG Export Plug-In . SVG Version: 6.00 Build 0)  -->
<svg version="1.1" id="Capa_1" xmlns="http://www.w3.org/2000/svg" xmlns:xlink="http://www.w3.org/1999/xlink" x="0px" y="0px"
	 viewBox="0 0 480 480" style="enable-background:new 0 0 480 480;" xml:space="preserve">
<g>
	<g>
		<path d="M440,0H40c-4.418,0-8,3.582-8,8v464c0,4.418,3.582,8,8,8h400c4.418,0,8-3.582,8-8V8C448,3.582,444.418,0,440,0z M208,464
			H48V16h160V464z M432,464H224v-48h208V464z M432,400H224v-48h208V400z M264.968,322.344c1.504-1.494,3.536-2.336,5.656-2.344
			h114.752c2.12,0.008,4.152,0.85,5.656,2.344c1.506,1.496,2.35,3.533,2.344,5.656c0.006,2.123-0.838,4.16-2.344,5.656
			c-1.504,1.494-3.536,2.336-5.656,2.344H270.624c-2.12-0.008-4.152-0.85-5.656-2.344
			C261.845,330.532,261.845,325.468,264.968,322.344z M266.344,290.344c1.504-1.495,3.536-2.337,5.656-2.344h114.744
			c4.418-0.003,8.003,3.575,8.006,7.994c0.002,2.12-0.838,4.153-2.334,5.654c-1.503,1.507-3.544,2.354-5.672,2.352H272
			c-2.12-0.007-4.152-0.85-5.656-2.344C263.221,298.532,263.221,293.468,266.344,290.344z M432,336h-24.08
			c2.955-7.903,1.386-16.787-4.096-23.2c9.278-9.466,9.126-24.661-0.339-33.939c-4.472-4.383-10.479-6.845-16.741-6.861H272
			c-13.179-0.095-23.941,10.511-24.036,23.691c-0.041,5.668,1.937,11.166,5.58,15.509c-6.5,6.495-8.633,16.175-5.464,24.8H224V128
			h16v24c0,4.418,3.582,8,8,8s8-3.582,8-8v-24h16v24c0,4.418,3.582,8,8,8s8-3.582,8-8v-24h16v24c0,4.418,3.582,8,8,8s8-3.582,8-8
			v-24h16v24c0,4.418,3.582,8,8,8s8-3.582,8-8v-24h16v24c0,4.418,3.582,8,8,8s8-3.582,8-8v-24h24c4.418,0,8-3.582,8-8s-3.582-8-8-8
			h-24v-8c0-4.418-3.582-8-8-8s-8,3.582-8,8v8h-16v-8c0-4.418-3.582-8-8-8s-8,3.582-8,8v8h-16v-8c0-4.418-3.582-8-8-8s-8,3.582-8,8
			v8h-16v-8c0-4.418-3.582-8-8-8s-8,3.582-8,8v8h-16v-8c0-4.418-3.582-8-8-8s-8,3.582-8,8v8h-16V80h208V336z M432,64H224V16h208V64z
			"/>
	</g>
</g>
<g>
	<g>
		<path d="M344,32h-32c-4.418,0-8,3.582-8,8s3.582,8,8,8h32c4.418,0,8-3.582,8-8S348.418,32,344,32z"/>
	</g>
</g>
<g>
	<g>
		<path d="M344,368h-32c-4.418,0-8,3.582-8,8s3.582,8,8,8h32c4.418,0,8-3.582,8-8S348.418,368,344,368z"/>
	</g>
</g>
<g>
	<g>
		<path d="M344,432h-32c-4.418,0-8,3.582-8,8s3.582,8,8,8h32c4.418,0,8-3.582,8-8S348.418,432,344,432z"/>
	</g>
</g>
<g>
	<g>
		<path d="M133.853,34.344c-3.069-3.178-8.134-3.266-11.312-0.197c-0.067,0.064-0.132,0.13-0.197,0.197l-56,56
			c-3.124,3.125-3.123,8.19,0.002,11.314C67.846,103.157,69.879,104,72,104c2.122,0,4.156-0.844,5.656-2.344l56-56
			C136.834,42.587,136.922,37.522,133.853,34.344z"/>
	</g>
</g>
<g>
	<g>
		<path d="M173.656,42.344c-3.124-3.123-8.188-3.123-11.312,0l-96,96c-3.178,3.069-3.266,8.134-0.197,11.312
			c3.069,3.178,8.134,3.266,11.312,0.197c0.067-0.064,0.132-0.13,0.197-0.197l96-96C176.779,50.532,176.779,45.468,173.656,42.344z"
			/>
	</g>
</g>
<g>
	<g>
		<path d="M176,208c-4.418,0-8,3.582-8,8v40c0,4.418,3.582,8,8,8s8-3.582,8-8v-40C184,211.582,180.418,208,176,208z"/>
	</g>
</g>
<g>
</g>
<g>
</g>
<g>
</g>
<g>
</g>
<g>
</g>
<g>
</g>
<g>
</g>
<g>
</g>
<g>
</g>
<g>
</g>
<g>
</g>
<g>
</g>
<g>
</g>
<g>
</g>
<g>
</g>
</svg>
