<svg id="Capa_1" enable-background="new 0 0 511.977 511.977" height="512" viewBox="0 0 511.977 511.977" width="512" xmlns="http://www.w3.org/2000/svg"><g><path d="m502.05 70.949-63.439-41.864c-.001 0-.002-.001-.002-.001l-42.192-27.844c-3.456-2.28-8.109-1.328-10.391 2.129s-1.329 8.109 2.129 10.391l35.926 23.708-13.153 19.875c-.01.015-.022.028-.032.043s-.017.03-.026.044l-84.747 128.064-58.305-38.477c-78.843-52.03-185.373-30.302-237.475 48.432-8.464 12.79-15.163 26.593-19.911 41.026-1.294 3.935.846 8.174 4.781 9.468 3.933 1.292 8.174-.846 9.468-4.781 4.331-13.165 10.444-25.76 18.171-37.436 47.543-71.845 144.756-91.67 216.704-44.19l110.522 72.935c5.331 3.518 8.969 8.896 10.245 15.146 1.275 6.243.04 12.609-3.479 17.926l-146.071 220.738c-7.273 10.987-22.142 14.018-33.146 6.757l-110.522-72.934c-48.728-32.156-75.311-88.207-69.376-146.279.421-4.121-2.578-7.803-6.698-8.224-4.114-.419-7.802 2.578-8.224 6.698-6.505 63.648 22.63 125.081 76.036 160.324l110.522 72.935c17.707 11.705 41.98 7.032 53.917-10.999l202.154-305.483c2.286-3.455 1.339-8.108-2.115-10.394-3.456-2.286-8.108-1.339-10.394 2.115l-39.163 59.181c-2.743-8.188-8.096-15.19-15.423-20.025l-39.697-26.196 11.353-17.155 14.084 9.294c3.422 2.263 8.088 1.36 10.391-2.129 2.282-3.457 1.328-8.109-2.129-10.391l-14.068-9.284 9.043-13.666 14.084 9.294c3.422 2.262 8.087 1.361 10.391-2.129 2.282-3.457 1.329-8.109-2.129-10.391l-14.068-9.284 9.043-13.665 14.084 9.294c3.422 2.263 8.088 1.36 10.391-2.129 2.282-3.457 1.328-8.109-2.129-10.391l-14.068-9.283 9.043-13.666 14.084 9.294c3.422 2.262 8.087 1.361 10.391-2.129 2.282-3.457 1.329-8.109-2.129-10.391l-14.068-9.284 9.043-13.666 14.084 9.294c3.422 2.263 8.088 1.36 10.391-2.129 2.282-3.457 1.328-8.109-2.129-10.391l-14.068-9.284 9.043-13.666 57.187 37.739c1.539 1.104 1.797 2.501.839 4.091l-42.316 63.945c-2.286 3.455-1.339 8.108 2.115 10.394 3.454 2.285 8.107 1.339 10.394-2.115l42.316-63.945c5.441-8.133 3.065-19.561-5.087-24.884zm-286.482 155.029c-35.242-23.256-82.864-13.543-106.155 21.651-22.959 34.693-13.712 82.677 21.681 106.036 34.894 23.029 82.655 13.857 106.155-21.652 23.657-35.748 13.142-83.055-21.681-106.035zm9.172 97.757c-18.732 28.306-57.035 36.116-85.384 17.41-28.512-18.813-36.105-57.022-17.434-85.238 18.732-28.308 57.036-36.118 85.384-17.41 27.808 18.352 35.948 57.263 17.434 85.238zm130.164-81.643-103.19-68.096c-64.69-42.69-152.036-25.612-194.706 38.071-20.845 31.109-28.249 68.498-20.848 105.279 7.408 36.812 28.717 68.456 60.003 89.103l104.407 68.899c6.745 4.459 15.995 2.678 20.542-4.193l137.99-208.521c4.494-6.723 2.526-16.153-4.198-20.542zm-146.209 220.646-104.27-68.81c-27.925-18.428-46.946-46.676-53.559-79.541-6.607-32.834 0-66.207 18.603-93.971 23.898-35.666 63.504-54.94 103.991-54.94 24.059 0 48.435 6.812 69.993 21.039l103.037 67.995z"/></g></svg>