<svg id="Capa_1" enable-background="new 0 0 512.002 512.002" height="512" viewBox="0 0 512.002 512.002" width="512" xmlns="http://www.w3.org/2000/svg"><g><path d="m394.715 367.619c24.854 0 45.074-20.22 45.074-45.073 0-24.854-20.22-45.074-45.074-45.074s-45.073 20.22-45.073 45.074c0 24.853 20.219 45.073 45.073 45.073zm0-75.148c16.583 0 30.074 13.491 30.074 30.074 0 16.582-13.491 30.073-30.074 30.073-16.582 0-30.073-13.491-30.073-30.073 0-16.583 13.491-30.074 30.073-30.074z"/><path d="m320.131 139.14c4.143 0 7.5-3.358 7.5-7.5s-3.357-7.5-7.5-7.5h-128.26c-4.143 0-7.5 3.358-7.5 7.5s3.357 7.5 7.5 7.5z"/><path d="m295.565 287.208c0-4.143-3.357-7.5-7.5-7.5h-64.13c-4.143 0-7.5 3.357-7.5 7.5s3.357 7.5 7.5 7.5h64.13c4.143 0 7.5-3.357 7.5-7.5z"/><path d="m120.241 162.694c0 4.142 3.357 7.5 7.5 7.5h256.52c4.143 0 7.5-3.358 7.5-7.5s-3.357-7.5-7.5-7.5h-256.52c-4.142 0-7.5 3.358-7.5 7.5z"/><path d="m127.741 201.247h256.52c4.143 0 7.5-3.357 7.5-7.5 0-4.142-3.357-7.5-7.5-7.5h-256.52c-4.143 0-7.5 3.358-7.5 7.5s3.358 7.5 7.5 7.5z"/><path d="m127.741 232.3h256.52c4.143 0 7.5-3.357 7.5-7.5s-3.357-7.5-7.5-7.5h-256.52c-4.143 0-7.5 3.357-7.5 7.5s3.358 7.5 7.5 7.5z"/><path d="m0 63.239v271.92c0 21.526 17.514 39.04 39.04 39.04h301.423c.514.224 1.031.431 1.548.627v98.725c0 5.351 2.953 10.2 7.708 12.656 2.069 1.069 4.312 1.597 6.544 1.597 2.896 0 5.773-.888 8.237-2.637l15.68-11.128h.001l14.534-10.314 30.215 21.442c4.364 3.099 10.03 3.493 14.782 1.04 4.754-2.456 7.707-7.306 7.707-12.656v-98.724c.518-.196 1.035-.404 1.55-.628h23.993c21.526 0 39.04-17.514 39.04-39.04v-118.46c0-4.143-3.357-7.5-7.5-7.5s-7.5 3.357-7.5 7.5v118.46c0 13.256-10.784 24.04-24.04 24.04h-12.48c.752-5.719-.386-12.03.607-15.088 1.448-4.464 10.868-11.362 10.868-21.565 0-6.696-3.986-11.84-7.188-15.972-3.225-4.162-3.652-5.048-3.906-6.601 2.028-.43 4.099-.654 6.2-.654 8.768.063 14.939-6.775 14.939-14.582v-171.076c0-8.183-6.676-14.671-14.666-14.583-17.116.061-30.33-13.657-30.212-30.211.071-8.1-6.489-14.667-14.584-14.667h-333.078c-7.632 0-14.615 5.95-14.583 14.938.002 16.345-13.135 30.001-30.212 29.94-8.036-.086-14.667 6.438-14.667 14.583v171.076c0 7.714 6.073 14.643 14.944 14.582 16.262.002 29.996 13.148 29.934 30.211-.071 8.102 6.489 14.668 14.584 14.668h149.039c4.143 0 7.5-3.357 7.5-7.5s-3.357-7.5-7.5-7.5h-148.622c-.032-24.732-20.146-44.846-44.879-44.879v-170.241c24.792-.032 44.847-20.079 44.879-44.879h332.243c.016 11.984 4.689 23.247 13.162 31.72 8.474 8.472 19.735 13.144 31.718 13.159v170.241c-2.251.003-4.482.172-6.683.505-1.896-10.843-10.001-13.86-18.072-16.232-6.859-2.014-6.909-2.11-10.814-7.845-2.925-4.296-6.565-9.642-12.845-11.681-6.073-1.968-12.049.148-16.852 1.853-6.893 2.442-7.15 2.442-14.042 0-3.883-1.378-8.534-3.026-13.383-2.564h-246.57c-4.143 0-7.5 3.357-7.5 7.5s3.357 7.5 7.5 7.5h228.432c-.866 1.176-1.71 2.187-2.472 2.742-4.553 3.314-19.178 2.909-23.648 15.143-2.657 7.27-.425 15.781-1.711 19.741-1.731 5.338-15.076 14.361-9.542 28.218h-45.299c-4.143 0-7.5 3.357-7.5 7.5s3.357 7.5 7.5 7.5h54.863c.952 3.114-.166 9.301.585 15.001h-289.909c-13.256 0-24.04-10.784-24.04-24.04v-271.921c0-13.256 10.784-24.04 24.04-24.04h433.922c13.256 0 24.04 10.784 24.04 24.04v118.46c0 4.142 3.357 7.5 7.5 7.5s7.5-3.358 7.5-7.5v-118.46c0-21.527-17.514-39.04-39.04-39.04h-433.922c-21.526 0-39.04 17.513-39.04 39.04zm368.34 400.809-11.329 8.04v-89.18c2.738 3.933 5.915 9.257 11.329 12.06zm37.752-10.645-3.13-2.221c-.308-.219-.623-.424-.944-.616-2.245-1.341-4.775-2.011-7.303-2.011-2.89 0-5.779.875-8.244 2.626l-3.131 2.222v-57.784c15.048-4.389 7.113-4.542 22.752 0zm26.327 18.685-11.327-8.039v-69.081c5.408-2.802 8.581-8.116 11.327-12.06zm-95.9-156.326c6.342-8.185 7.49-11.391 7.2-22.261-.207-7.773-.051-7.906 3.964-9.344 11.146-3.991 14.334-2.664 22.712-14.969 1.621-2.379 3.632-5.33 5.031-5.835 1.641 0 1.609-.302 7.254 1.701 10.249 3.637 13.873 3.618 24.069 0 2.522-.895 5.979-2.123 7.205-1.722 1.401.454 3.44 3.449 5.08 5.856 5.997 8.804 8.748 10.786 18.983 13.794 8.084 2.375 7.916 2.161 7.693 10.519-.283 10.869.843 14.058 7.2 22.26 5.274 6.807 5.279 6.757 0 13.566-7.243 9.344-7.36 12.147-7.164 23.869.136 8.208-.419 6.169-11.998 10.248-7.48 2.625-10.221 5.856-14.715 12.454-4.9 7.198-4.626 6.843-12.292 4.129-14.248-5.042-16.256-2.152-27.73 1.227-4.566 1.331-4.057.955-10.254-7.717-9.703-13.577-19.931-9.906-24.267-14.253-1.049-1.109-.828-5.666-.773-7.698.229-8.655-.244-12.616-4.96-19.282-7.054-9.851-8.499-8.467-2.238-16.542z"/></g></svg>