<svg height="486pt" viewBox="0 -62 486.8034 486" width="486pt" xmlns="http://www.w3.org/2000/svg"><path d="m479.800781 114.132812h-29.199219v-68.429687c0-3.867187-3.136718-7-7-7h-202.402343l-8.800781-19.945313c-.5625-1.28125-1.503907-2.367187-2.695313-3.109374l-22.710937-14.183594c-1.972657-1.230469-4.425782-1.402344-6.550782-.460938l-84.855468 37.699219h-72.355469c-3.863281 0-7 3.132813-7 7v68.429687h-29.230469c-3.867188 0-7 3.132813-7 7v78.929688c0 3.867188 3.132812 7 7 7h38.058594l-44.734375 145.394531c-.65625 2.121094-.2656252 4.425781 1.050781 6.210938 1.316406 1.789062 3.40625 2.84375 5.625 2.847656h27.285156c2.929688.003906 5.550782-1.816406 6.570313-4.558594l32.402343-86.800781 32.398438 86.800781c1.019531 2.738281 3.636719 4.554688 6.558594 4.554688h27.285156c2.222656 0 4.3125-1.054688 5.632812-2.839844 1.320313-1.789063 1.710938-4.097656 1.054688-6.21875l-44.789062-145.390625h284l-44.746094 145.394531c-.65625 2.121094-.261719 4.429688 1.058594 6.21875 1.320312 1.789063 3.410156 2.84375 5.632812 2.839844h27.28125c2.921875-.003906 5.535156-1.820313 6.554688-4.558594l32.398437-86.800781 32.402344 86.800781c1.019531 2.738281 3.636719 4.554688 6.558593 4.554688h27.261719c2.222657.003906 4.3125-1.050781 5.632813-2.839844 1.320312-1.789063 1.714844-4.097656 1.058594-6.21875l-44.765626-145.390625h38.074219c3.863281 0 7-3.132812 7-7v-78.929688c0-3.867187-3.136719-7-7-7zm-43.199219 0h-187.480468c-2.109375-21.160156-12.503906-40.625-28.921875-54.140624l16.402343-7.292969h199.945313zm-268.203124-20.925781c-12.933594.011719-24.324219 8.523438-28 20.925781h-38.695313c.070313-.542968.148437-1.078124.230469-1.601562l103.632812-46.039062c16.347656 10.78125 27.132813 28.199218 29.5 47.640624h-38.703125c-3.675781-12.402343-15.0625-20.910156-27.996093-20.925781zm12.675781 20.925781h-25.378907c2.769532-4.316406 7.546876-6.925781 12.675782-6.925781s9.902344 2.609375 12.671875 6.925781zm21.664062-98.828124 17.734375 11.074218 6.707032 15.199219-75.277344 33.421875-59.050782 26.21875-6.523437 2.898438c-2.527344 1.125-4.160156 3.628906-4.160156 6.398437v3.601563h-8.535157v-21.160157l4.054688-22.078125zm-152.472656 37.398437h33.851563l-15.460938 6.871094c-2.109375.941406-3.621094 2.859375-4.039062 5.132812l-4.835938 26.335938c-.078125.417969-.117188.839843-.117188 1.265625v21.824218h-9.398437zm-7 75.429687h429.523437v25.460938h-23.199218c-3.128906-11.148438-13.292969-18.851562-24.875-18.851562-11.578125 0-21.742188 7.703124-24.871094 18.851562h-15.976562c-3.125-11.148438-13.292969-18.851562-24.871094-18.851562s-21.746094 7.703124-24.871094 18.851562h-320.113281v-25.460938zm393.335937 32.460938c0 6.550781-5.3125 11.863281-11.863281 11.863281-6.546875 0-11.859375-5.3125-11.859375-11.863281 0-6.546875 5.3125-11.859375 11.859375-11.859375 6.535157.023437 11.824219 5.328125 11.828125 11.859375zm-65.714843 0c0 6.546875-5.304688 11.855469-11.847657 11.863281-6.546874.003907-11.859374-5.296875-11.871093-11.84375s5.285156-11.863281 11.832031-11.878906c6.546875.011719 11.847656 5.316406 11.855469 11.859375zm-341.449219 186.921875h-12.945312l43.226562-140.453125h22.121094l-11.316406 30.332031-3.84375 10.304688zm87.597656 0-36.328125-97.359375 9.238281-24.75 1.34375-3.597656 38.695313 125.71875zm252.730469 0h-12.949219l43.226563-140.449219h22.121093l-1.878906 5.042969zm87.597656 0-36.328125-97.359375 10.515625-28.191406.0625-.160156 38.695313 125.71875zm-25.109375-154.449219h-418.242187v-25.472656h320.113281c3.121094 11.15625 13.289062 18.867188 24.871094 18.867188 11.582031 0 21.75-7.710938 24.871094-18.867188h15.964843c3.121094 11.15625 13.289063 18.867188 24.871094 18.867188 11.585937 0 21.75-7.710938 24.871094-18.867188h23.203125v25.46875zm0 0"/></svg>