<?xml version="1.0"?>
<svg xmlns="http://www.w3.org/2000/svg" width="512" height="512" viewBox="0 0 512 512"><path d="M481.231,232.575l13.425-20.137a8,8,0,0,0-4.552-12.157c-.174-.047-16.114-4.416-34.1-11.177V160a8.018,8.018,0,0,0-2.2-5.5c-3.592-10.881-11.545-21.164-23.463-30.46l9.606-5.05,11.147,5.861a8,8,0,0,0,11.607-8.434L460.565,104l9.019-8.791a8,8,0,0,0-4.434-13.646l-12.462-1.81L447.114,68.46a8,8,0,0,0-14.347,0l-5.575,11.293-12.463,1.811A8,8,0,0,0,410.3,95.209L419.314,104l-1.929,11.247c-21.263-12.434-44.189-20-69.961-25.824l4.636-2.438,11.147,5.861a8,8,0,0,0,11.607-8.434L372.686,72l9.018-8.791a8,8,0,0,0-4.433-13.646l-12.463-1.811-5.575-11.293a8,8,0,0,0-14.347,0l-5.574,11.293-12.462,1.81a8,8,0,0,0-4.434,13.646L331.435,72c-.081.769-2.472,13.569-2.227,13.895-45.627-7.83-100.789-7.83-146.416,0,.242-.3-2.148-13.158-2.227-13.895l9.019-8.791a8,8,0,0,0-4.434-13.646l-12.462-1.81L167.114,36.46a8,8,0,0,0-14.347,0l-5.575,11.293-12.463,1.811A8,8,0,0,0,130.3,63.209L139.314,72l-2.128,12.412a8,8,0,0,0,11.607,8.434l11.147-5.861,4.636,2.438c-25.764,5.817-48.706,13.393-69.961,25.824L92.686,104l9.018-8.791a8,8,0,0,0-4.433-13.646L84.808,79.752,79.233,68.459a8,8,0,0,0-14.347,0L59.312,79.753,46.85,81.563a8,8,0,0,0-4.434,13.646L51.435,104l-2.129,12.412a8,8,0,0,0,11.607,8.434l11.147-5.861,9.606,5.05C69.748,133.331,61.8,143.614,58.2,154.5A8.018,8.018,0,0,0,56,160v29.1c-17.961,6.75-33.93,11.13-34.1,11.178a8,8,0,0,0-4.552,12.156l13.425,20.137L16.845,260.422c-3.135,6.036,2.744,13.194,9.26,11.3C44.061,266.971,122.824,242.674,120,216c-.006-4.927.006-41.947,0-47.764,29.352-12.73,64.25-20.208,104-23.117v3.915a103.931,103.931,0,0,0-71.785,92.252c-16.665,5.584-21.733,27.328-9.182,39.7A23.886,23.886,0,0,0,160,288h8.367A87.723,87.723,0,0,0,192,340.333V344H176a8,8,0,0,0-8,8v8.57c-26.819,3.365-48.519,28.28-48,55.43v32a51.436,51.436,0,0,0,51.462,51.438q2.541,0,5.1-.254L256,491.24l79.443,7.94a50.712,50.712,0,0,0,5.073.254,51.712,51.712,0,0,0,50.605-41.946c1.609-6.444.629-34.455.88-41.488.52-27.152-21.186-52.071-48-55.43V352a8,8,0,0,0-8-8H320v-3.667A87.723,87.723,0,0,0,343.633,288H352c27.087-.552,33.184-37.468,7.785-46.716A103.93,103.93,0,0,0,288,149.033v-3.915c39.758,2.911,74.641,10.386,104,23.117-.067,6.03.048,42.769,0,47.765-2.8,26.728,76.1,51.007,93.9,55.717,6.493,1.893,12.41-5.246,9.259-11.295ZM433.655,94.981a8.115,8.115,0,0,0,6.285-4.905,8.2,8.2,0,0,0,6.869,4.99,8.2,8.2,0,0,0-2.624,8.075,8.2,8.2,0,0,0-8.49,0,8.2,8.2,0,0,0-2.624-8.075Zm-87.88-32a8.115,8.115,0,0,0,6.285-4.905,8.2,8.2,0,0,0,6.869,4.99,8.2,8.2,0,0,0-2.624,8.075,8.2,8.2,0,0,0-8.49,0,8.2,8.2,0,0,0-2.624-8.075ZM163.663,70.866a8.117,8.117,0,0,0-7.968.275,8.2,8.2,0,0,0-2.624-8.075,8.2,8.2,0,0,0,6.869-4.99,8.2,8.2,0,0,0,6.869,4.99,8.2,8.2,0,0,0-2.624,8.075ZM78.506,95.479a8.11,8.11,0,0,0-2.2,7.662,8.2,8.2,0,0,0-8.49,0,8.2,8.2,0,0,0-2.624-8.075,8.2,8.2,0,0,0,6.869-4.99,8.2,8.2,0,0,0,6.869,4.99ZM65.091,241.547c-9.016,3.692-18.1,6.889-25.6,9.351l7.66-15.32a8,8,0,0,0-.5-8.016L36.682,212.6c5.2-1.612,11.944-3.8,19.318-6.45V216a8,8,0,0,0,12.112,6.862c10.346-6.12,28.61-14.307,35.888-11.971V216C104,216.393,103.558,225.79,65.091,241.547ZM104,194.656c-8.508-.81-18.783,2.364-27.374,6,5.139-8.565,14.446-16.87,27.374-24.369ZM184.455,288H192v24.921A71.405,71.405,0,0,1,184.455,288ZM304,288v45.608c-26.077,24.341-69.93,24.334-96,0V288Zm24,160a8.009,8.009,0,0,1-8,8,8,8,0,0,0-8,8,8.009,8.009,0,0,1-8,8h-8V440h24A8.009,8.009,0,0,1,328,448Zm-39.914-24a7.91,7.91,0,0,0-.882.04h0L264,426.36V416h32v8ZM296,400H267.314L296,371.314Zm-80-28.686L244.686,400H216Zm40,17.373-24.018-24.019a88.685,88.685,0,0,0,48.036,0ZM216,416h32v10.361c-.036,0-23.167-2.318-23.2-2.32h0c.069-.072-8.485-.029-8.8-.04Zm-32-56h16v64c-4.738.053-11.59-.452-16,1.387Zm-36.28,27.714A39.666,39.666,0,0,1,168,376.794V435.96l-32,3.2V416A39.709,39.709,0,0,1,147.72,387.714Zm27.246,95.55c-17.555,2.074-34.984-10.775-38.231-28.1l39.775-3.978a7.411,7.411,0,0,0,2.078-.207L280,440.84v31.92Zm162.07,0-16.744-1.674a24.019,24.019,0,0,0,6.677-10.617A24.078,24.078,0,0,0,343.665,452l31.607,3.164A35.611,35.611,0,0,1,337.036,483.26Zm27.25-95.54A39.7,39.7,0,0,1,376,416v23.16l-32-3.2V376.8A39.663,39.663,0,0,1,364.286,387.72ZM328,360v65.376c-4.324-1.819-11.315-1.327-16-1.376V360Zm-8-47.079V288h7.545A71.405,71.405,0,0,1,320,312.921ZM343.63,240H312c-10.632.409-10.568,15.619,0,16h40a7.974,7.974,0,0,1,5.653,2.326c5,4.895,1.408,13.756-5.653,13.674H160c-6.99.128-10.7-8.776-5.674-13.653A7.991,7.991,0,0,1,160,256h40c10.623-.4,10.576-15.618,0-16H168.37A87.957,87.957,0,0,1,224,166v26c.391,10.6,15.608,10.6,16,0V152h32v40c.391,10.6,15.608,10.6,16,0V166A87.957,87.957,0,0,1,343.63,240ZM256,128c-56.638.341-105.783,8.817-147.048,27.685a8.142,8.142,0,0,0-.778.368c-15.3,7.268-27.463,15.57-36.174,24.611V168c5.429-54.295,126.852-73.156,184-72,57.191-1.139,178.514,17.67,184,72v12.664c-8.711-9.041-20.875-17.343-36.174-24.611a8.142,8.142,0,0,0-.778-.368C361.8,136.82,312.619,128.338,256,128Zm179.375,72.653c-8.6-3.634-18.88-6.81-27.375-6V176.284C420.928,183.783,430.236,192.088,435.375,200.653Zm29.47,34.925,7.66,15.32c-7.5-2.462-16.58-5.659-25.6-9.351C408.442,225.79,408,216.393,408,216v-5.109c7.986-2.618,27.01,7.06,37.8,12.8a8.044,8.044,0,0,0,9.888-5.5c.585-1.43.214-10.388.311-12.038,7.374,2.649,14.113,4.838,19.318,6.45l-9.974,14.961A8,8,0,0,0,464.845,235.578ZM235.374,56l-2.129,12.412a8,8,0,0,0,11.608,8.434L256,70.985l11.147,5.861a8,8,0,0,0,11.608-8.434L276.626,56l9.018-8.791a8,8,0,0,0-4.434-13.646l-12.463-1.81L263.174,20.46a8,8,0,0,0-14.348,0l-5.573,11.293-12.463,1.81a8,8,0,0,0-4.434,13.646Zm14.342-9.019a8.116,8.116,0,0,0,6.284-4.9,8.2,8.2,0,0,0,6.869,4.989,8.2,8.2,0,0,0-2.624,8.075,8.2,8.2,0,0,0-8.49,0,8.2,8.2,0,0,0-2.624-8.075ZM216,304c.391-10.6,15.608-10.6,16,0a8,8,0,0,1-16,0Zm64,0c.391-10.6,15.608-10.6,16,0a8,8,0,0,1-16,0Zm-45.657,10.343A19.349,19.349,0,0,1,256,310.42a19.349,19.349,0,0,1,21.657,3.923,8,8,0,0,1-11.314,11.314,3.263,3.263,0,0,0-4.686,0,8,8,0,0,1-11.314,0,3.267,3.267,0,0,0-4.686,0,8,8,0,0,1-11.314-11.314ZM256,200a32.036,32.036,0,0,0-32,32c1.758,42.452,62.248,42.44,64,0A32.036,32.036,0,0,0,256,200Zm0,48a16.019,16.019,0,0,1-16-16c.879-21.226,31.124-21.22,32,0A16.019,16.019,0,0,1,256,248Z"/></svg>
