<?xml version="1.0" encoding="iso-8859-1"?>
<!-- Generator: Adobe Illustrator 19.0.0, SVG Export Plug-In . SVG Version: 6.00 Build 0)  -->
<svg version="1.1" id="Capa_1" xmlns="http://www.w3.org/2000/svg" xmlns:xlink="http://www.w3.org/1999/xlink" x="0px" y="0px"
	 viewBox="0 0 496 496" style="enable-background:new 0 0 496 496;" xml:space="preserve">
<g>
	<g>
		<g>
			<rect x="184" y="88" width="16" height="16"/>
			<rect x="152" y="88" width="16" height="16"/>
			<rect x="328" y="88" width="16" height="16"/>
			<rect x="296" y="88" width="16" height="16"/>
			<rect x="272" y="376" width="16" height="16"/>
			<rect x="272" y="408" width="16" height="16"/>
			<rect x="272" y="440" width="16" height="16"/>
			<path d="M456,152h-40h-32v-16c0-5.896-3.24-11-8-13.776V104C376,46.656,329.344,0,272,0h-48c-57.344,0-104,46.656-104,104v18.224
				c-4.76,2.776-8,7.88-8,13.776v16H80H40H0v40v96h17.752l25.376,101.52C47.032,405.112,60.976,416,77.048,416
				c12.448,0,23.328-6.592,29.52-16.424L128,392.432V496h240V392.432l21.432,7.144c6.2,9.832,17.072,16.424,29.52,16.424
				c16.072,0,30.016-10.888,33.912-26.48L478.248,288H496v-96v-40H456z M376,192c0,10.824-7.24,19.888-17.104,22.872
				c0.648-4.88,1.104-9.816,1.104-14.872v-30.528C369.288,172.784,376,181.584,376,192z M128,136h200v-16H136v-16
				c0-45.824,35.216-83.536,80-87.592V104h16V16h32v88h16V16.408c44.784,4.056,80,41.768,80,87.592v16h-16v16h24v16H128V136z
				 M273.112,292.552l-0.264-0.136l-0.112,0.232C264.824,294.768,256.56,296,248,296s-16.824-1.232-24.728-3.344l-0.112-0.232
				l-0.264,0.136C182.112,281.472,152,244.232,152,200v-32h192v32C344,244.232,313.888,281.472,273.112,292.552z M317.92,329.856
				l-51.008,10.2l17.048-34.088c8.456-2.88,16.448-6.736,23.864-11.448L317.92,329.856z M229.088,340.056l-51.008-10.2
				l10.088-35.336c7.416,4.712,15.408,8.576,23.872,11.448L229.088,340.056z M136,169.472V200c0,5.056,0.456,9.992,1.104,14.872
				C127.248,211.888,120,202.824,120,192C120,181.584,126.712,172.784,136,169.472z M16,168h24h24v24c0,13.232-10.768,24-24,24
				s-24-10.768-24-24V168z M16,272v-48.208c6.704,5.08,14.96,8.208,24,8.208c22.056,0,40-17.944,40-40v-24h32.208
				c-5.08,6.704-8.208,14.96-8.208,24c0,20.904,16.168,37.912,36.632,39.656c4.432,14.992,11.88,28.672,21.704,40.344H16z
				 M96,381.048C96,391.496,87.496,400,77.048,400c-8.712,0-16.28-5.904-18.392-14.36L34.248,288h39.504l21.68,86.728
				c0.376,1.496,0.568,3.04,0.568,4.592V381.048z M90.248,288h51.864l-46.096,23.048L90.248,288z M240,480h-96v-92.896
				l34.528-11.512l-5.064-15.176L112,380.896v-1.584c0-2.856-0.352-5.712-1.04-8.48l-10.968-43.888l72.664-36.328l-14.72,51.52
				l80.224,16.04l1.84,3.712V480z M232.328,310.776C237.464,311.496,242.672,312,248,312s10.536-0.504,15.664-1.224L248,342.112
				L232.328,310.776z M385.04,370.832c-0.688,2.768-1.04,5.624-1.04,8.48v1.584l-61.472-20.488l-5.064,15.176L352,387.104V480h-96
				V361.888l1.848-3.704l80.224-16.04l-14.72-51.52l72.656,36.328L385.04,370.832z M353.888,288h51.864l-5.76,23.048L353.888,288z
				 M437.344,385.64c-2.112,8.456-9.68,14.36-18.392,14.36C408.504,400,400,391.496,400,381.048v-1.728
				c0-1.552,0.192-3.096,0.568-4.592L422.248,288h39.504L437.344,385.64z M480,272H333.664
				c9.816-11.664,17.272-25.352,21.704-40.344C375.832,229.912,392,212.904,392,192c0-9.04-3.128-17.296-8.208-24H416v24
				c0,22.056,17.944,40,40,40c9.04,0,17.296-3.128,24-8.208V272z M480,192c0,13.232-10.768,24-24,24s-24-10.768-24-24v-24h24h24V192
				z"/>
		</g>
	</g>
</g>
<g>
</g>
<g>
</g>
<g>
</g>
<g>
</g>
<g>
</g>
<g>
</g>
<g>
</g>
<g>
</g>
<g>
</g>
<g>
</g>
<g>
</g>
<g>
</g>
<g>
</g>
<g>
</g>
<g>
</g>
</svg>
